<svg width="522" height="327" viewBox="0 0 522 327" fill="none" xmlns="http://www.w3.org/2000/svg">
<path d="M0 192H497L380.776 327H112.371L0 192Z" fill="#729385"/>
<path d="M132.301 135L102.32 134.902L106.52 111.172L133.473 111.367C137.9 111.302 141.611 110.26 144.605 108.242C147.665 106.159 150.042 103.49 151.734 100.234C153.492 96.9141 154.664 93.2357 155.25 89.1992C155.641 86.2044 155.673 83.0143 155.348 79.6289C155.022 76.1784 153.98 73.2487 152.223 70.8398C150.53 68.3659 147.796 66.9987 144.02 66.7383L123.316 66.543L102.809 185H74.9766L99.4883 42.8125L145.289 42.9102C153.948 43.1706 161.24 45.3841 167.164 49.5508C173.154 53.6523 177.516 59.1536 180.25 66.0547C183.049 72.9557 184.091 80.6055 183.375 89.0039C182.529 98.3789 179.794 106.517 175.172 113.418C170.615 120.254 164.658 125.592 157.301 129.434C149.944 133.21 141.611 135.065 132.301 135ZM222.926 42.8125H245.68L254.273 145.449L298.121 42.8125H322.438L257.594 185H238.551L222.926 42.8125ZM209.84 42.8125H233.277L219.801 147.5L213.16 185H185.328L209.84 42.8125ZM311.207 42.8125H334.742L310.133 185H282.203L289.234 144.961L311.207 42.8125ZM405.934 137.734L432.789 137.344C431.747 147.24 428.98 155.964 424.488 163.516C420.061 171.068 414.039 176.927 406.422 181.094C398.87 185.26 389.951 187.214 379.664 186.953C371.07 186.758 364.007 184.902 358.473 181.387C352.939 177.806 348.674 173.118 345.68 167.324C342.685 161.465 340.829 154.987 340.113 147.891C339.397 140.729 339.495 133.438 340.406 126.016L344.117 101.895C345.289 94.0169 347.275 86.3997 350.074 79.043C352.874 71.6211 356.585 65.013 361.207 59.2188C365.829 53.3594 371.493 48.7695 378.199 45.4492C384.97 42.1289 392.783 40.5664 401.637 40.7617C411.858 40.957 419.931 43.3333 425.855 47.8906C431.845 52.3828 436.142 58.4049 438.746 65.957C441.35 73.5091 442.685 81.875 442.75 91.0547L414.82 90.957C415.081 86.5299 415.016 82.3307 414.625 78.3594C414.234 74.3229 412.932 71.0352 410.719 68.4961C408.57 65.8919 404.827 64.4922 399.488 64.2969C394.28 64.1016 389.983 65.1432 386.598 67.4219C383.277 69.7005 380.608 72.7279 378.59 76.5039C376.637 80.2799 375.139 84.3815 374.098 88.8086C373.121 93.2357 372.34 97.5326 371.754 101.699L368.336 126.113C367.88 129.499 367.457 133.275 367.066 137.441C366.741 141.608 366.839 145.645 367.359 149.551C367.88 153.457 369.215 156.712 371.363 159.316C373.512 161.921 376.995 163.353 381.812 163.613C387.477 163.809 391.904 162.767 395.094 160.488C398.284 158.21 400.66 155.085 402.223 151.113C403.85 147.077 405.087 142.617 405.934 137.734Z" fill="#95B494"/>
</svg>
