<svg width="42" height="40" viewBox="0 0 42 40" fill="none" xmlns="http://www.w3.org/2000/svg">
<path d="M36.0108 2.04421C35.6366 1.42215 35.1088 0.907264 34.4783 0.549203C33.8479 0.191142 33.136 0.0019929 32.4114 0H9.5886C8.1228 0 6.7431 0.783158 5.9892 2.04421L0.300301 11.5474C0.103437 11.8746 -0.000409426 12.2495 1.21313e-06 12.6316C0.008388 14.6636 0.754939 16.623 2.1 18.1432V35.7895C2.1 38.1116 3.9837 40 6.3 40H35.7C38.0163 40 39.9 38.1116 39.9 35.7895V18.1432C41.2451 16.623 41.9916 14.6636 42 12.6316C42.0004 12.2495 41.8966 11.8746 41.6997 11.5474L36.0108 2.04421ZM37.7664 13.16C37.6368 14.1765 37.1424 15.1108 36.3756 15.7885C35.6088 16.4661 34.6222 16.8407 33.6 16.8421C31.2837 16.8421 29.4 14.9537 29.4 12.6316C29.4 12.4884 29.3475 12.3621 29.3181 12.2274L29.3601 12.2189L27.762 4.21053H32.4114L37.7664 13.16ZM18.5199 4.21053H23.478L25.1853 12.7684C25.1118 15.0253 23.268 16.8421 21 16.8421C18.732 16.8421 16.8882 15.0253 16.8147 12.7684L18.5199 4.21053ZM9.5886 4.21053H14.238L12.642 12.2189L12.684 12.2274C12.6525 12.3621 12.6 12.4884 12.6 12.6316C12.6 14.9537 10.7163 16.8421 8.4 16.8421C7.37783 16.8407 6.39116 16.4661 5.62439 15.7885C4.85762 15.1108 4.36322 14.1765 4.2336 13.16L9.5886 4.21053ZM16.8 35.7895V29.4737H25.2V35.7895H16.8ZM29.4 35.7895V29.4737C29.4 27.1516 27.5163 25.2632 25.2 25.2632H16.8C14.4837 25.2632 12.6 27.1516 12.6 29.4737V35.7895H6.3V20.7537C6.9741 20.9284 7.6692 21.0526 8.4 21.0526C9.59241 21.0533 10.7712 20.7987 11.8577 20.3061C12.9441 19.8134 13.9131 19.094 14.7 18.1958C16.2393 19.9474 18.4947 21.0526 21 21.0526C23.5053 21.0526 25.7607 19.9474 27.3 18.1958C28.0869 19.094 29.0559 19.8134 30.1423 20.3061C31.2288 20.7987 32.4076 21.0533 33.6 21.0526C34.3308 21.0526 35.0259 20.9284 35.7 20.7537V35.7895H29.4Z" fill="white"/>
</svg>
