<svg width="32" height="36" viewBox="0 0 32 36" fill="none" xmlns="http://www.w3.org/2000/svg">
<path d="M16 18C21.05 18 25.1429 13.9711 25.1429 9C25.1429 4.02891 21.05 0 16 0C10.95 0 6.85714 4.02891 6.85714 9C6.85714 13.9711 10.95 18 16 18ZM9.14286 21.8813C3.85714 23.407 0 28.2164 0 33.9117C0 35.0648 0.95 36 2.12143 36H29.8786C31.05 36 32 35.0648 32 33.9117C32 28.2164 28.1429 23.407 22.8571 21.8813V25.4531C24.8286 25.9523 26.2857 27.7172 26.2857 29.8125V32.625C26.2857 33.2438 25.7714 33.75 25.1429 33.75H24C23.3714 33.75 22.8571 33.2438 22.8571 32.625C22.8571 32.0062 23.3714 31.5 24 31.5V29.8125C24 28.568 22.9786 27.5625 21.7143 27.5625C20.45 27.5625 19.4286 28.568 19.4286 29.8125V31.5C20.0571 31.5 20.5714 32.0062 20.5714 32.625C20.5714 33.2438 20.0571 33.75 19.4286 33.75H18.2857C17.6571 33.75 17.1429 33.2438 17.1429 32.625V29.8125C17.1429 27.7172 18.6 25.9523 20.5714 25.4531V21.4383C20.1429 21.3961 19.7071 21.375 19.2643 21.375H12.7357C12.2929 21.375 11.8571 21.3961 11.4286 21.4383V26.0367C13.0786 26.5219 14.2857 28.0266 14.2857 29.8125C14.2857 31.9852 12.4929 33.75 10.2857 33.75C8.07857 33.75 6.28571 31.9852 6.28571 29.8125C6.28571 28.0266 7.49286 26.5219 9.14286 26.0367V21.8813ZM10.2857 31.5C11.2357 31.5 12 30.7477 12 29.8125C12 28.8773 11.2357 28.125 10.2857 28.125C9.33571 28.125 8.57143 28.8773 8.57143 29.8125C8.57143 30.7477 9.33571 31.5 10.2857 31.5Z" fill="white"/>
</svg>
