<svg width="35" height="37" viewBox="0 0 35 37" fill="none" xmlns="http://www.w3.org/2000/svg">
<path d="M34.6974 0L32.4736 0.745592C28.6624 2.07749 24.5927 2.48621 20.5949 1.93854C16.3941 1.28281 12.0944 1.8655 8.21592 3.61612C6.15982 4.49675 4.35536 5.8807 2.96684 7.64196C1.57832 9.40322 0.64984 11.4859 0.265931 13.7003C-0.124587 15.8298 -0.0846392 18.0166 0.38339 20.1302C0.851419 22.2439 1.73794 24.241 2.99005 26.0025C2.87886 26.394 2.76768 26.7854 2.67502 27.1768C1.92235 30.396 1.54915 33.6931 1.56313 37H5.26942C5.44361 34.2932 5.80899 31.6023 6.36278 28.9476C8.93389 30.3441 11.8172 31.0563 14.739 31.0166C17.464 31.0147 20.161 30.4633 22.6705 29.395C36.7729 23.337 34.9197 3.18741 34.9197 2.34861L34.6974 0ZM21.225 25.9652C16.3883 28.0343 10.6065 27.6801 7.36348 25.1264C7.91158 23.283 8.66372 21.5073 9.60578 19.8327C10.3381 18.6275 11.2021 17.5084 12.1817 16.4962C13.1825 15.4732 14.3098 14.5837 15.5358 13.8494C18.0692 12.3257 20.8788 11.3245 23.8009 10.9043V9.0403C20.4389 8.92324 17.0975 9.61331 14.0533 11.0534C10.9408 12.581 8.30121 14.9332 6.41837 17.8569C5.72005 18.9736 5.1008 20.1384 4.56523 21.3426C3.70633 19.1325 3.46287 16.7288 3.86103 14.3899C4.12191 12.7525 4.79298 11.2088 5.811 9.90438C6.82903 8.59995 8.16049 7.57771 9.67991 6.934C11.8956 5.89234 14.3132 5.3576 16.7589 5.36826C17.9079 5.36826 19.0383 5.4801 20.2243 5.5733C23.9386 6.05533 27.7098 5.83406 31.3432 4.92091C31.2134 10.0655 30.2869 22.0882 21.225 25.9652Z" fill="white"/>
</svg>
